<svg width="25" height="24" viewBox="0 0 25 24" fill="none" xmlns="http://www.w3.org/2000/svg">
<path d="M16.875 3.56V2C16.875 1.59 16.535 1.25 16.125 1.25C15.715 1.25 15.375 1.59 15.375 2V3.5H8.87499V2C8.87499 1.59 8.53499 1.25 8.12499 1.25C7.71499 1.25 7.37499 1.59 7.37499 2V3.56C4.67499 3.81 3.36499 5.42 3.16499 7.81C3.14499 8.1 3.38499 8.34 3.66499 8.34H20.585C20.875 8.34 21.115 8.09 21.085 7.81C20.885 5.42 19.575 3.81 16.875 3.56Z" fill="#4464D9"/>
<path d="M20.125 9.83997H4.125C3.575 9.83997 3.125 10.29 3.125 10.84V17C3.125 20 4.625 22 8.125 22H16.125C19.625 22 21.125 20 21.125 17V10.84C21.125 10.29 20.675 9.83997 20.125 9.83997ZM9.335 18.21C9.285 18.25 9.235 18.3 9.185 18.33C9.125 18.37 9.065 18.4 9.005 18.42C8.945 18.45 8.885 18.47 8.825 18.48C8.755 18.49 8.695 18.5 8.625 18.5C8.495 18.5 8.365 18.47 8.245 18.42C8.115 18.37 8.015 18.3 7.915 18.21C7.735 18.02 7.625 17.76 7.625 17.5C7.625 17.24 7.735 16.98 7.915 16.79C8.015 16.7 8.115 16.63 8.245 16.58C8.425 16.5 8.625 16.48 8.825 16.52C8.885 16.53 8.945 16.55 9.005 16.58C9.065 16.6 9.125 16.63 9.185 16.67C9.235 16.71 9.285 16.75 9.335 16.79C9.515 16.98 9.625 17.24 9.625 17.5C9.625 17.76 9.515 18.02 9.335 18.21ZM9.335 14.71C9.145 14.89 8.885 15 8.625 15C8.365 15 8.105 14.89 7.915 14.71C7.735 14.52 7.625 14.26 7.625 14C7.625 13.74 7.735 13.48 7.915 13.29C8.195 13.01 8.635 12.92 9.005 13.08C9.135 13.13 9.245 13.2 9.335 13.29C9.515 13.48 9.625 13.74 9.625 14C9.625 14.26 9.515 14.52 9.335 14.71ZM12.835 18.21C12.645 18.39 12.385 18.5 12.125 18.5C11.865 18.5 11.605 18.39 11.415 18.21C11.235 18.02 11.125 17.76 11.125 17.5C11.125 17.24 11.235 16.98 11.415 16.79C11.785 16.42 12.465 16.42 12.835 16.79C13.015 16.98 13.125 17.24 13.125 17.5C13.125 17.76 13.015 18.02 12.835 18.21ZM12.835 14.71C12.785 14.75 12.735 14.79 12.685 14.83C12.625 14.87 12.565 14.9 12.505 14.92C12.445 14.95 12.385 14.97 12.325 14.98C12.255 14.99 12.195 15 12.125 15C11.865 15 11.605 14.89 11.415 14.71C11.235 14.52 11.125 14.26 11.125 14C11.125 13.74 11.235 13.48 11.415 13.29C11.505 13.2 11.615 13.13 11.745 13.08C12.115 12.92 12.555 13.01 12.835 13.29C13.015 13.48 13.125 13.74 13.125 14C13.125 14.26 13.015 14.52 12.835 14.71ZM16.335 18.21C16.145 18.39 15.885 18.5 15.625 18.5C15.365 18.5 15.105 18.39 14.915 18.21C14.735 18.02 14.625 17.76 14.625 17.5C14.625 17.24 14.735 16.98 14.915 16.79C15.285 16.42 15.965 16.42 16.335 16.79C16.515 16.98 16.625 17.24 16.625 17.5C16.625 17.76 16.515 18.02 16.335 18.21ZM16.335 14.71C16.285 14.75 16.235 14.79 16.185 14.83C16.125 14.87 16.065 14.9 16.005 14.92C15.945 14.95 15.885 14.97 15.825 14.98C15.755 14.99 15.685 15 15.625 15C15.365 15 15.105 14.89 14.915 14.71C14.735 14.52 14.625 14.26 14.625 14C14.625 13.74 14.735 13.48 14.915 13.29C15.015 13.2 15.115 13.13 15.245 13.08C15.425 13 15.625 12.98 15.825 13.02C15.885 13.03 15.945 13.05 16.005 13.08C16.065 13.1 16.125 13.13 16.185 13.17C16.235 13.21 16.285 13.25 16.335 13.29C16.515 13.48 16.625 13.74 16.625 14C16.625 14.26 16.515 14.52 16.335 14.71Z" fill="#4464D9"/>
</svg>
