<svg width="20" height="20" viewBox="0 0 20 20" fill="none" xmlns="http://www.w3.org/2000/svg">
<path fill-rule="evenodd" clip-rule="evenodd" d="M13.0675 2.5C15.715 2.5 17.5 4.20325 17.5 6.745V13.2475C17.5 15.79 15.715 17.5 13.0675 17.5H6.94C4.285 17.5 2.5 15.79 2.5 13.2475V6.745C2.5 4.20325 4.285 2.5 6.94 2.5H13.0675ZM9.41787 13.0197C9.08384 13.3537 8.54202 13.3529 8.20895 13.0179L5.85141 10.6468C5.49597 10.2893 5.4968 9.71158 5.85327 9.3551C6.21047 8.99791 6.7896 8.99791 7.1468 9.3551L8.64124 10.8495C8.73585 10.9441 8.88923 10.9441 8.98383 10.8495L12.8125 7.02086C13.17 6.66333 13.749 6.66102 14.1094 7.01567C14.4738 7.37437 14.4762 7.96135 14.1146 8.32294L9.41787 13.0197Z" fill="#4464D9"/>
</svg>
