<svg width="36" height="36" viewBox="0 0 36 36" fill="none" xmlns="http://www.w3.org/2000/svg">
<path d="M17.2262 0.945073C17.6263 0.45639 18.3737 0.456391 18.7738 0.945073L21.1787 3.88257C21.4507 4.21472 21.9043 4.33625 22.3058 4.18457L25.8574 2.84312C26.4482 2.61996 27.0954 2.99362 27.1976 3.61688L27.8116 7.36332C27.881 7.78693 28.2131 8.11898 28.6367 8.18841L32.3831 8.80245C33.0064 8.9046 33.38 9.55179 33.1569 10.1426L31.8154 13.6942C31.6637 14.0957 31.7853 14.5493 32.1174 14.8213L35.0549 17.2262C35.5436 17.6263 35.5436 18.3737 35.0549 18.7738L32.1174 21.1787C31.7853 21.4507 31.6637 21.9043 31.8154 22.3058L33.1569 25.8574C33.38 26.4482 33.0064 27.0954 32.3831 27.1976L28.6367 27.8116C28.2131 27.881 27.881 28.2131 27.8116 28.6367L27.1976 32.3831C27.0954 33.0064 26.4482 33.38 25.8574 33.1569L22.3058 31.8154C21.9043 31.6637 21.4507 31.7853 21.1787 32.1174L18.7738 35.0549C18.3737 35.5436 17.6263 35.5436 17.2262 35.0549L14.8213 32.1174C14.5493 31.7853 14.0957 31.6637 13.6942 31.8154L10.1426 33.1569C9.55179 33.38 8.9046 33.0064 8.80245 32.3831L8.18841 28.6367C8.11898 28.2131 7.78693 27.881 7.36332 27.8116L3.61688 27.1976C2.99362 27.0954 2.61996 26.4482 2.84312 25.8574L4.18457 22.3058C4.33625 21.9043 4.21472 21.4507 3.88257 21.1787L0.945073 18.7738C0.45639 18.3737 0.456391 17.6263 0.945073 17.2262L3.88257 14.8213C4.21472 14.5493 4.33625 14.0957 4.18457 13.6942L2.84312 10.1426C2.61996 9.55179 2.99362 8.9046 3.61688 8.80245L7.36332 8.18841C7.78693 8.11898 8.11898 7.78693 8.18841 7.36332L8.80245 3.61688C8.9046 2.99362 9.55179 2.61996 10.1426 2.84312L13.6942 4.18457C14.0957 4.33625 14.5493 4.21472 14.8213 3.88257L17.2262 0.945073Z" fill="#0B484B"/>
<mask id="mask0_33_1866" style="mask-type:alpha" maskUnits="userSpaceOnUse" x="8" y="8" width="20" height="20">
<rect x="8" y="8" width="20" height="20" fill="#D9D9D9"/>
</mask>
<g mask="url(#mask0_33_1866)">
<path d="M14.2502 17.1673C13.4446 17.1673 12.7571 16.8826 12.1877 16.3132C11.6182 15.7437 11.3335 15.0562 11.3335 14.2507C11.3335 13.4451 11.6182 12.7576 12.1877 12.1882C12.7571 11.6187 13.4446 11.334 14.2502 11.334C15.0557 11.334 15.7432 11.6187 16.3127 12.1882C16.8821 12.7576 17.1668 13.4451 17.1668 14.2507C17.1668 15.0562 16.8821 15.7437 16.3127 16.3132C15.7432 16.8826 15.0557 17.1673 14.2502 17.1673ZM14.2502 15.5007C14.5974 15.5007 14.8924 15.379 15.1352 15.1357C15.3785 14.8929 15.5002 14.5979 15.5002 14.2507C15.5002 13.9034 15.3785 13.6084 15.1352 13.3657C14.8924 13.1223 14.5974 13.0007 14.2502 13.0007C13.9029 13.0007 13.6079 13.1223 13.3652 13.3657C13.1218 13.6084 13.0002 13.9034 13.0002 14.2507C13.0002 14.5979 13.1218 14.8929 13.3652 15.1357C13.6079 15.379 13.9029 15.5007 14.2502 15.5007ZM21.7502 24.6673C20.9446 24.6673 20.2571 24.3826 19.6877 23.8132C19.1182 23.2437 18.8335 22.5562 18.8335 21.7507C18.8335 20.9451 19.1182 20.2576 19.6877 19.6881C20.2571 19.1187 20.9446 18.834 21.7502 18.834C22.5557 18.834 23.2432 19.1187 23.8127 19.6881C24.3821 20.2576 24.6668 20.9451 24.6668 21.7507C24.6668 22.5562 24.3821 23.2437 23.8127 23.8132C23.2432 24.3826 22.5557 24.6673 21.7502 24.6673ZM21.7502 23.0007C22.0974 23.0007 22.3924 22.879 22.6352 22.6357C22.8785 22.3929 23.0002 22.0979 23.0002 21.7507C23.0002 21.4034 22.8785 21.1084 22.6352 20.8657C22.3924 20.6223 22.0974 20.5007 21.7502 20.5007C21.4029 20.5007 21.1079 20.6223 20.8652 20.8657C20.6218 21.1084 20.5002 21.4034 20.5002 21.7507C20.5002 22.0979 20.6218 22.3929 20.8652 22.6357C21.1079 22.879 21.4029 23.0007 21.7502 23.0007ZM11.9168 24.084C11.7641 23.9312 11.6877 23.7368 11.6877 23.5007C11.6877 23.2645 11.7641 23.0701 11.9168 22.9173L22.9168 11.9173C23.0696 11.7645 23.2641 11.6882 23.5002 11.6882C23.7363 11.6882 23.9307 11.7645 24.0835 11.9173C24.2363 12.0701 24.3127 12.2645 24.3127 12.5007C24.3127 12.7368 24.2363 12.9312 24.0835 13.084L13.0835 24.084C12.9307 24.2368 12.7363 24.3132 12.5002 24.3132C12.2641 24.3132 12.0696 24.2368 11.9168 24.084Z" fill="white"/>
</g>
</svg>
