<svg width="16" height="16" viewBox="0 0 16 16" fill="none" xmlns="http://www.w3.org/2000/svg">
<mask id="mask0_65_1228" style="mask-type:alpha" maskUnits="userSpaceOnUse" x="0" y="0" width="16" height="16">
<rect width="16" height="16" fill="#D9D9D9"/>
</mask>
<g mask="url(#mask0_65_1228)">
<path d="M4.46663 12.8666L2.6333 12.4666C2.46663 12.4333 2.3333 12.3472 2.2333 12.2083C2.1333 12.0694 2.09441 11.9166 2.11663 11.75L2.29997 9.86664L1.04997 8.43331C0.938856 8.31109 0.883301 8.16664 0.883301 7.99997C0.883301 7.83331 0.938856 7.68886 1.04997 7.56664L2.29997 6.13331L2.11663 4.24997C2.09441 4.08331 2.1333 3.93053 2.2333 3.79164C2.3333 3.65275 2.46663 3.56664 2.6333 3.53331L4.46663 3.13331L5.4333 1.49997C5.52219 1.35553 5.64441 1.26109 5.79997 1.21664C5.95552 1.1722 6.11108 1.17775 6.26663 1.23331L7.99997 1.96664L9.7333 1.23331C9.88886 1.17775 10.0444 1.1722 10.2 1.21664C10.3555 1.26109 10.4777 1.35553 10.5666 1.49997L11.5333 3.13331L13.3666 3.53331C13.5333 3.56664 13.6666 3.65275 13.7666 3.79164C13.8666 3.93053 13.9055 4.08331 13.8833 4.24997L13.7 6.13331L14.95 7.56664C15.0611 7.68886 15.1166 7.83331 15.1166 7.99997C15.1166 8.16664 15.0611 8.31109 14.95 8.43331L13.7 9.86664L13.8833 11.75C13.9055 11.9166 13.8666 12.0694 13.7666 12.2083C13.6666 12.3472 13.5333 12.4333 13.3666 12.4666L11.5333 12.8666L10.5666 14.5C10.4777 14.6444 10.3555 14.7389 10.2 14.7833C10.0444 14.8278 9.88886 14.8222 9.7333 14.7666L7.99997 14.0333L6.26663 14.7666C6.11108 14.8222 5.95552 14.8278 5.79997 14.7833C5.64441 14.7389 5.52219 14.6444 5.4333 14.5L4.46663 12.8666ZM6.8333 9.89997C6.95552 10.0222 7.11108 10.0833 7.29997 10.0833C7.48886 10.0833 7.64441 10.0222 7.76663 9.89997L10.6 7.06664C10.7333 6.93331 10.8 6.77497 10.8 6.59164C10.8 6.40831 10.7333 6.24997 10.6 6.11664C10.4666 5.98331 10.3083 5.91664 10.125 5.91664C9.94163 5.91664 9.7833 5.98331 9.64997 6.11664L7.29997 8.46664L6.3333 7.51664C6.19997 7.39442 6.04163 7.33609 5.8583 7.34164C5.67497 7.3472 5.52219 7.41109 5.39997 7.53331C5.27775 7.65553 5.21663 7.81109 5.21663 7.99997C5.21663 8.18886 5.27775 8.34442 5.39997 8.46664L6.8333 9.89997Z" fill="#4464D9"/>
</g>
</svg>
