<svg width="21" height="20" viewBox="0 0 21 20" fill="none" xmlns="http://www.w3.org/2000/svg">
<path d="M11.97 17.9341V18.5641L4.2 19.2781L0 17.1781V8.94604C0 7.07003 0.35 5.48802 1.05 4.20002C1.778 2.88401 2.814 1.75001 4.158 0.798003L8.358 2.89801L9.618 4.07402C10.29 2.47801 11.452 1.12 13.104 0L17.304 2.10001L20.58 5.33402C19.46 6.00602 18.718 6.87403 18.354 7.93803L20.874 9.19804V17.8081L13.062 18.4801L11.97 17.9341ZM13.44 7.77003C13.44 6.62203 13.636 5.67002 14.028 4.91402C14.42 4.15802 14.966 3.57001 15.666 3.15001L13.02 0.546C11.844 1.33 10.92 2.35201 10.248 3.61201C9.604 4.84402 9.282 6.35603 9.282 8.14803V15.9181L16.254 15.3301V7.56003L13.44 7.77003ZM4.536 8.56803C4.536 7.42003 4.732 6.46803 5.124 5.71202C5.544 4.92802 6.104 4.32602 6.804 3.90602L4.116 1.34401C2.968 2.12801 2.058 3.15001 1.386 4.41002C0.742 5.64202 0.42 7.15403 0.42 8.94604V16.7161L7.35 16.0861V8.31603L4.536 8.56803Z" fill="#4464D9"/>
</svg>
