<svg width="28" height="28" viewBox="0 0 28 28" fill="none" xmlns="http://www.w3.org/2000/svg">
<mask id="mask0_33_2936" style="mask-type:alpha" maskUnits="userSpaceOnUse" x="0" y="0" width="28" height="28">
<rect width="28" height="28" fill="#D9D9D9"/>
</mask>
<g mask="url(#mask0_33_2936)">
<path d="M10.3252 20.7952L14.0002 18.5786L17.6752 20.8244L16.7127 16.6244L19.9502 13.8244L15.6919 13.4452L14.0002 9.47858L12.3085 13.4161L8.0502 13.7952L11.2877 16.6244L10.3252 20.7952ZM14.0002 21.3202L9.15854 24.2369C8.94465 24.373 8.72104 24.4314 8.4877 24.4119C8.25437 24.3925 8.0502 24.3147 7.8752 24.1786C7.7002 24.0425 7.56409 23.8725 7.46687 23.6687C7.36965 23.4642 7.3502 23.2355 7.40854 22.9827L8.69187 17.4702L4.40437 13.7661C4.20993 13.5911 4.08859 13.3916 4.04037 13.1676C3.99137 12.9444 4.00576 12.7258 4.08354 12.5119C4.16132 12.298 4.27798 12.123 4.43354 11.9869C4.58909 11.8508 4.80298 11.7633 5.0752 11.7244L10.7335 11.2286L12.921 6.03691C13.0183 5.80358 13.1691 5.62858 13.3737 5.51191C13.5775 5.39525 13.7863 5.33691 14.0002 5.33691C14.2141 5.33691 14.4233 5.39525 14.6279 5.51191C14.8316 5.62858 14.9821 5.80358 15.0794 6.03691L17.2669 11.2286L22.9252 11.7244C23.1974 11.7633 23.4113 11.8508 23.5669 11.9869C23.7224 12.123 23.8391 12.298 23.9169 12.5119C23.9946 12.7258 24.0094 12.9444 23.9612 13.1676C23.9122 13.3916 23.7905 13.5911 23.596 13.7661L19.3085 17.4702L20.5919 22.9827C20.6502 23.2355 20.6308 23.4642 20.5335 23.6687C20.4363 23.8725 20.3002 24.0425 20.1252 24.1786C19.9502 24.3147 19.746 24.3925 19.5127 24.4119C19.2794 24.4314 19.0558 24.373 18.8419 24.2369L14.0002 21.3202Z" fill="#666E7D"/>
</g>
</svg>
