<svg width="16" height="17" viewBox="0 0 16 17" fill="none" xmlns="http://www.w3.org/2000/svg">
<mask id="mask0_108_3215" style="mask-type:alpha" maskUnits="userSpaceOnUse" x="0" y="0" width="16" height="17">
<rect y="0.5" width="16" height="16" fill="#D9D9D9"/>
</mask>
<g mask="url(#mask0_108_3215)">
<path d="M4.46663 13.3666L2.6333 12.9666C2.46663 12.9333 2.3333 12.8472 2.2333 12.7083C2.1333 12.5694 2.09441 12.4166 2.11663 12.25L2.29997 10.3666L1.04997 8.93331C0.938856 8.81109 0.883301 8.66664 0.883301 8.49997C0.883301 8.33331 0.938856 8.18886 1.04997 8.06664L2.29997 6.63331L2.11663 4.74997C2.09441 4.58331 2.1333 4.43053 2.2333 4.29164C2.3333 4.15275 2.46663 4.06664 2.6333 4.03331L4.46663 3.63331L5.4333 1.99997C5.52219 1.85553 5.64441 1.76109 5.79997 1.71664C5.95552 1.6722 6.11108 1.67775 6.26663 1.73331L7.99997 2.46664L9.7333 1.73331C9.88886 1.67775 10.0444 1.6722 10.2 1.71664C10.3555 1.76109 10.4777 1.85553 10.5666 1.99997L11.5333 3.63331L13.3666 4.03331C13.5333 4.06664 13.6666 4.15275 13.7666 4.29164C13.8666 4.43053 13.9055 4.58331 13.8833 4.74997L13.7 6.63331L14.95 8.06664C15.0611 8.18886 15.1166 8.33331 15.1166 8.49997C15.1166 8.66664 15.0611 8.81109 14.95 8.93331L13.7 10.3666L13.8833 12.25C13.9055 12.4166 13.8666 12.5694 13.7666 12.7083C13.6666 12.8472 13.5333 12.9333 13.3666 12.9666L11.5333 13.3666L10.5666 15C10.4777 15.1444 10.3555 15.2389 10.2 15.2833C10.0444 15.3278 9.88886 15.3222 9.7333 15.2666L7.99997 14.5333L6.26663 15.2666C6.11108 15.3222 5.95552 15.3278 5.79997 15.2833C5.64441 15.2389 5.52219 15.1444 5.4333 15L4.46663 13.3666ZM6.8333 10.4C6.95552 10.5222 7.11108 10.5833 7.29997 10.5833C7.48886 10.5833 7.64441 10.5222 7.76663 10.4L10.6 7.56664C10.7333 7.43331 10.8 7.27497 10.8 7.09164C10.8 6.90831 10.7333 6.74997 10.6 6.61664C10.4666 6.48331 10.3083 6.41664 10.125 6.41664C9.94163 6.41664 9.7833 6.48331 9.64997 6.61664L7.29997 8.96664L6.3333 8.01664C6.19997 7.89442 6.04163 7.83609 5.8583 7.84164C5.67497 7.8472 5.52219 7.91109 5.39997 8.03331C5.27775 8.15553 5.21663 8.31109 5.21663 8.49997C5.21663 8.68886 5.27775 8.84442 5.39997 8.96664L6.8333 10.4Z" fill="white"/>
</g>
</svg>
