<svg xmlns="http://www.w3.org/2000/svg" width="25" height="24" viewBox="0 0 25 24" fill="none">
<path d="M19.875 8C21.5319 8 22.875 6.65685 22.875 5C22.875 3.34315 21.5319 2 19.875 2C18.2181 2 16.875 3.34315 16.875 5C16.875 6.65685 18.2181 8 19.875 8Z" fill="#66708f"/>
<path d="M20.675 9.42C20.645 9.43 20.615 9.43 20.585 9.44C20.505 9.45 20.435 9.46 20.345 9.47C20.195 9.49 20.035 9.5 19.875 9.5C19.445 9.5 19.035 9.44 18.645 9.32C18.475 9.28 18.315 9.23 18.165 9.16C18.015 9.1 17.855 9.02 17.715 8.94C16.965 8.53 16.345 7.91 15.935 7.16C15.855 7.02 15.775 6.86 15.715 6.71C15.645 6.56 15.595 6.4 15.555 6.23C15.435 5.84 15.375 5.43 15.375 5C15.375 4.84 15.385 4.68 15.405 4.53C15.415 4.44 15.425 4.37 15.435 4.29C15.445 4.26 15.445 4.23 15.455 4.2C15.575 3.58 15.115 3 14.475 3H8.395C8.255 3 8.115 3.01 7.985 3.02C7.865 3.03 7.755 3.04 7.635 3.06C7.515 3.07 7.395 3.09 7.285 3.11C4.875 3.46 3.335 4.99 2.985 7.41C2.965 7.52 2.945 7.64 2.935 7.76C2.915 7.88 2.905 7.99 2.895 8.11C2.885 8.24 2.875 8.38 2.875 8.52V16.48C2.875 16.62 2.885 16.76 2.895 16.89C2.905 17.01 2.915 17.12 2.935 17.24C2.945 17.36 2.965 17.48 2.985 17.59C3.335 20.01 4.875 21.54 7.285 21.89C7.395 21.91 7.515 21.93 7.635 21.94C7.755 21.96 7.865 21.97 7.985 21.98C8.115 21.99 8.255 22 8.395 22H16.355C16.495 22 16.635 21.99 16.765 21.98C16.885 21.97 16.995 21.96 17.115 21.94C17.235 21.93 17.355 21.91 17.465 21.89C19.875 21.54 21.415 20.01 21.765 17.59C21.785 17.48 21.805 17.36 21.815 17.24C21.835 17.12 21.845 17.01 21.855 16.89C21.865 16.76 21.875 16.62 21.875 16.48V10.4C21.875 9.76 21.295 9.3 20.675 9.42ZM13.155 15.25C12.625 16.92 10.805 17.82 10.175 17.82C9.535 17.82 7.745 16.94 7.205 15.25H7.195C6.845 14.14 7.245 12.69 8.515 12.28C9.095 12.09 9.715 12.2 10.165 12.55C10.615 12.2 11.245 12.09 11.835 12.28C13.105 12.69 13.505 14.14 13.155 15.25Z" fill="#66708f"/>
</svg>